<svg xmlns="http://www.w3.org/2000/svg" viewBox="0 0 13 13" fill="none">
    <path
        d="M12.58 6.144c-2.884 0-3.881-.724-4.44-1.283-.56-.562-1.285-1.558-1.285-4.442C6.855.31 6.844 0 6.5 0c-.341 0-.354.31-.354.42 0 2.883-.726 3.879-1.285 4.44-.561.56-1.558 1.284-4.441 1.284-.11 0-.419.012-.419.356 0 .342.309.354.419.354 2.883 0 3.88.726 4.44 1.286.56.56 1.286 1.557 1.286 4.441 0 .11.013.419.354.419.345 0 .356-.309.356-.419 0-2.884.725-3.882 1.284-4.441.56-.56 1.557-1.286 4.441-1.286.11 0 .42-.01.42-.355 0-.341-.31-.355-.42-.355Z"
        fill="#7A98C9" />
</svg>